<svg width="46" height="58" viewBox="0 0 46 58" fill="none" xmlns="http://www.w3.org/2000/svg">
<path fill-rule="evenodd" clip-rule="evenodd" d="M21.2308 1.27625C19.8157 2.77304 17.2422 4.78258 15.0519 6.10093C11.2707 8.37672 7.79693 9.37122 2.7382 9.62578C-0.430476 9.78529 -0.228665 9.62175 0.324103 11.5799C0.696569 12.8995 0.841696 13.5554 1.31708 16.0651C1.57296 17.4158 1.63427 19.4145 1.6415 26.6384C1.64633 31.5378 1.73698 35.954 1.84291 36.4525C1.94904 36.951 2.12211 37.8401 2.22764 38.4286C2.78624 41.5416 4.32776 44.6043 6.33059 46.5804C8.07774 48.3043 9.95574 49.7044 14.1956 52.4443C16.3351 53.8268 21.2236 57.0593 22.4469 57.9003C22.6403 58.0332 22.8361 58.0332 23.0286 57.9003C23.9494 57.2649 28.8245 54.0131 29.6731 53.4686C38.0991 48.06 40.1052 46.2785 41.7755 42.72C42.6163 40.9292 42.9142 39.8912 43.459 36.8553C43.8182 34.8534 43.8736 33.7423 43.8676 28.6661C43.8638 25.4359 43.8063 22.5762 43.74 22.311C43.5639 21.6081 43.9848 16.4616 44.3623 14.7016C44.7587 12.8532 45.2121 11.1383 45.4755 10.492C45.6029 10.1786 45.6035 9.93916 45.4769 9.81228C45.3693 9.70453 44.3926 9.63082 43.3064 9.64814C40.6242 9.69124 36.6364 8.99078 34.6679 8.13081C34.3196 7.97855 33.9805 7.85409 33.9147 7.85409C33.8488 7.85409 33.1841 7.5671 32.4375 7.21606C30.1531 6.14262 26.7581 3.74277 24.7927 1.81237C23.7774 0.815458 22.832 -0.00020136 22.6917 3.72878e-08C22.5516 0.000201435 21.8941 0.574586 21.2308 1.27625Z" fill="#B23633"/>
<path fill-rule="evenodd" clip-rule="evenodd" d="M15.8066 16.193C15.4167 16.3782 15.1689 16.6307 15.0797 16.9334C15.0552 17.0162 15.0392 17.2873 15.0441 17.5357C15.0593 18.3165 14.9518 18.7941 14.7209 18.9707C14.6358 19.0358 14.5878 19.1169 14.5922 19.1885C14.598 19.2847 14.5422 19.3346 14.2353 19.5077C13.5029 19.9207 13.1411 20.4773 13.247 21.0276C13.2929 21.2656 13.3972 21.3584 13.5413 21.2895C13.6203 21.2516 13.6356 21.2698 13.6697 21.4423C13.691 21.5499 13.7894 21.7762 13.8884 21.9453C14.1323 22.3619 14.1352 22.3998 13.9291 22.478C13.3051 22.7145 13.261 22.7431 13.2756 22.901C13.3007 23.1708 13.3995 23.189 13.8427 23.0058C14.2664 22.8306 14.2782 22.8331 14.3314 23.1095C14.3706 23.3126 14.7772 24.026 15.0294 24.334C15.2318 24.5812 15.2465 24.6145 15.2095 24.7401C15.1348 24.9934 15.1646 25.4143 15.2773 25.6972C15.399 26.003 15.3885 25.9349 15.4042 26.5157C15.4117 26.791 15.448 27.0752 15.494 27.2193L15.5712 27.4609L15.2483 27.5242C14.877 27.5969 14.5562 27.7919 14.5458 27.9512C14.5422 28.0059 14.5351 28.0514 14.5299 28.0524C14.2793 28.1007 13.557 28.4888 13.1771 28.7793C12.9861 28.9254 12.9844 28.9258 12.7935 28.87C12.4192 28.7607 11.9773 28.7796 11.1097 28.942C10.1673 29.1184 9.92436 29.2118 9.29614 29.6394C8.64954 30.0796 8.20102 30.4892 8.01938 30.8054C7.75862 31.2594 6.96265 32.3004 6.65428 32.5908C6.49873 32.7373 6.29287 32.9625 6.19683 33.0912L6.02221 33.3253L6.18919 33.1783C6.59825 32.8183 6.71849 32.7235 6.74404 32.7408C6.80047 32.7791 6.70945 33.1701 6.55562 33.5506C6.43392 33.8516 6.32121 34.0266 6.07826 34.2919C5.90326 34.4829 5.7472 34.6809 5.73136 34.732C5.70429 34.8191 5.71294 34.8171 5.87047 34.6997C5.9628 34.6308 6.0523 34.5718 6.06929 34.5685C6.08628 34.5653 5.94466 34.796 5.75456 35.0812C5.30585 35.7544 5.26428 35.859 5.3288 36.1527C5.3571 36.2817 5.37841 36.3325 5.3761 36.2658C5.36646 35.9832 5.38406 35.9099 5.51244 35.6976C5.6292 35.5046 5.82534 35.2997 5.90871 35.2836C5.98224 35.2694 5.9388 35.4011 5.81817 35.558C5.73126 35.671 5.68234 35.798 5.68289 35.9091C5.68353 36.0399 5.607 36.1972 5.37466 36.5425C5.08981 36.9656 5.07904 36.9913 5.23768 36.8693C5.33242 36.7964 5.46756 36.6732 5.53808 36.5955C5.72374 36.3909 5.75789 36.4101 5.61018 36.6361C5.53981 36.7437 5.50336 36.8277 5.52915 36.8227C5.55495 36.8178 5.59787 36.782 5.62453 36.7433C5.66358 36.6865 5.67164 36.6992 5.66596 36.8086C5.65653 36.9913 5.70231 36.9713 5.76555 36.765C5.80399 36.6396 5.82565 36.616 5.8498 36.6729C5.86768 36.7151 5.86655 36.8004 5.84726 36.8625C5.82329 36.9399 5.82663 36.9622 5.85785 36.9335C5.90691 36.8883 5.93608 36.9513 5.89454 37.0127C5.8807 37.0331 5.87961 37.1129 5.89206 37.19C5.90637 37.2785 5.92799 37.3104 5.95079 37.2766C6.05232 37.1265 6.05708 37.2448 5.96204 37.5549L5.85556 37.9022L6.01703 37.6787C6.10583 37.5557 6.197 37.4207 6.21956 37.3787C6.24217 37.3366 6.28371 37.311 6.31189 37.3217C6.34008 37.3324 6.42469 37.2853 6.4999 37.217C6.57516 37.1487 6.64709 37.0999 6.65978 37.1085C6.67247 37.1171 6.5608 37.2937 6.41164 37.501C6.17293 37.8326 6.15441 37.8752 6.25717 37.8554C6.32143 37.843 6.52386 37.7514 6.70708 37.6517C6.89031 37.5521 7.04329 37.4867 7.04708 37.5063C7.05086 37.526 6.98214 37.6155 6.89433 37.7053C6.80652 37.7952 6.70416 37.9197 6.66693 37.9822C6.60023 38.0939 6.60089 38.0948 6.71002 38.0376C6.82013 37.9799 6.82014 37.9807 6.70931 38.1607C6.60451 38.3309 6.61353 38.3257 6.85755 38.0769C7.00044 37.9311 7.20199 37.7228 7.30543 37.614C7.40886 37.5052 7.53061 37.385 7.57601 37.3469C7.65712 37.2789 7.65748 37.2802 7.59816 37.431C7.56498 37.5153 7.62234 37.4471 7.72561 37.2794C7.90592 36.9866 7.96375 36.8572 8.26915 36.0637C8.44043 35.6186 8.72468 35.0255 8.7564 35.047C8.76948 35.0559 8.77852 35.1921 8.77645 35.3496C8.77442 35.5072 8.782 35.7113 8.7933 35.8032C8.8046 35.8951 8.80705 36.0156 8.79877 36.0709L8.78369 36.1715L8.8434 36.0623C9.05417 35.6768 9.17546 35.0769 9.14396 34.5756C9.13523 34.4365 9.18139 34.0868 9.24654 33.7984C9.37283 33.2394 9.44641 33.0557 9.44296 33.308C9.44122 33.4344 9.44837 33.4261 9.49381 33.2493C9.5229 33.1362 9.57569 32.917 9.61115 32.7622C9.67168 32.4978 9.96581 31.7438 10.1262 31.4416L10.1985 31.3055L10.1587 31.5087C10.1368 31.6204 10.0992 31.7791 10.0751 31.8613L10.0314 32.0108L10.1468 31.8882C10.3011 31.7243 10.4961 31.4101 10.6925 31.0092C10.8605 30.666 10.9448 30.5998 11.3006 30.5313L11.4603 30.5005L11.286 30.8395C10.7987 31.7876 10.7497 32.2841 10.9527 34.2145C11.0547 35.1852 11.0144 35.8678 10.8071 36.6786C10.6809 37.172 10.5435 37.3894 10.0469 37.8817C9.55304 38.3712 9.42782 38.6052 9.30938 39.2598C9.20179 39.8543 9.09757 40.1601 8.83835 40.6421C8.46291 41.3401 8.10716 41.6846 7.50511 41.9333C7.16445 42.074 7.1055 42.1698 7.07426 42.6337C7.05143 42.9722 7.165 43.7133 7.27299 43.9303C7.35989 44.1049 7.61417 44.1469 8.11107 44.0687C8.73217 43.9709 8.97703 43.86 9.13391 43.6056C9.3599 43.239 9.53912 42.9714 9.7073 42.7493C9.8206 42.5996 9.91932 42.3578 10.0322 41.9537C10.2948 41.0129 10.4959 40.5914 11.0767 39.7641C11.6867 38.8952 12.7974 37.5192 13.4364 36.8408C14.3519 35.8688 14.8102 35.3591 14.9836 35.1204L15.162 34.8748L15.3606 34.9052C15.4699 34.922 15.6377 34.9216 15.7334 34.9043C15.9533 34.8647 15.9985 34.915 15.9665 35.1633C15.9471 35.3135 15.8249 35.5219 15.464 36.0206C14.7319 37.032 14.5163 37.5051 14.5968 37.9233C14.6777 38.3431 15.1641 38.6041 16.1154 38.7379C16.5421 38.7979 16.6416 38.8293 17.4464 39.1581C18.6089 39.6329 18.8559 39.8565 18.8309 40.4121L18.8189 40.6779L19.0127 40.793C19.1193 40.8563 19.3418 40.981 19.5072 41.0701C19.6727 41.1592 19.8925 41.3069 19.9957 41.3984C20.0989 41.4898 20.2261 41.5675 20.2784 41.5709C20.4174 41.5801 20.6422 41.387 20.7053 41.2043C20.7799 40.9881 20.7154 40.1874 20.5858 39.7214C20.5279 39.5134 20.4436 39.1834 20.3983 38.988C20.3369 38.7225 20.2824 38.596 20.1832 38.488C20.0331 38.3248 19.9227 38.2893 19.3921 38.2338C18.9676 38.1895 18.3529 38.0557 18.0418 37.9398C17.7307 37.824 17.3705 37.6228 17.358 37.558C17.3397 37.4627 17.9536 36.6165 18.3716 36.1608C18.619 35.8913 18.8606 35.5616 19.0196 35.2769C19.3076 34.761 19.4289 34.6567 19.7568 34.6432L19.9826 34.6339L19.9044 34.3873C19.8613 34.2517 19.7414 33.9925 19.6379 33.8114C19.258 33.1472 19.1019 32.6801 18.8871 31.5659C18.767 30.9428 18.701 30.696 18.6135 30.5435C18.5358 30.4082 18.4919 30.261 18.479 30.0931L18.4599 29.8437L18.0335 29.5924C17.5839 29.3276 16.6281 28.6983 16.9568 28.8836C17.5519 29.219 17.551 29.2204 17.0205 28.778C16.8676 28.6505 16.6557 28.4339 16.5497 28.2965C16.4437 28.1592 16.2784 27.9858 16.1824 27.9112C16.0864 27.8366 16.0258 27.7591 16.0478 27.7388C16.1401 27.6538 17.1651 27.3495 17.7177 27.2431L18.3147 27.1281L18.4197 27.34C18.594 27.692 18.8029 27.9646 19.2112 28.3731C19.5896 28.7517 19.8857 29.1354 19.9144 29.2847C19.9284 29.3575 19.9052 29.3695 19.6221 29.4359C19.49 29.4668 19.4162 29.4169 18.7299 28.8318C18.3184 28.481 17.9323 28.1595 17.8719 28.1174C17.8114 28.0753 18.083 28.3968 18.4754 28.8319L19.1888 29.623L18.9897 29.7684L18.7906 29.9136L19.263 29.8314C19.5868 29.7751 19.6931 29.7691 19.6011 29.8124C19.4733 29.8725 19.4763 29.874 19.662 29.8438C19.7694 29.8263 19.9286 29.8125 20.0158 29.8131L20.1743 29.8143L20.2301 30.2157C20.2685 30.4929 20.2675 30.6343 20.2269 30.6726C20.1945 30.7031 19.9142 30.779 19.6039 30.8413C19.0918 30.9443 19.0542 30.9579 19.1949 30.99C19.2801 31.0094 19.5247 31.0277 19.7383 31.0306C19.952 31.0335 20.1381 31.0435 20.1518 31.0529C20.1656 31.0622 20.0837 31.0898 19.9698 31.1141C19.777 31.1553 19.7729 31.1592 19.9112 31.1692C19.9929 31.1752 20.1171 31.1818 20.1871 31.184C20.3097 31.1878 20.3148 31.1969 20.3207 31.4199C20.3241 31.5475 20.3726 31.9619 20.4284 32.3408C20.4842 32.7198 20.5252 33.0638 20.5196 33.1052C20.5125 33.1576 20.3636 33.0755 20.0276 32.8334L19.5457 32.4864L19.8991 32.9314C20.0934 33.1762 20.357 33.5081 20.4849 33.669C20.6201 33.839 20.7304 34.0289 20.7485 34.1227C20.7656 34.2114 20.8642 34.4339 20.9675 34.6171C21.139 34.9209 21.1504 34.9586 21.0974 35.046C21.0655 35.0987 21.0475 35.2536 21.0574 35.3902C21.0765 35.6537 21.0718 35.6594 20.7474 35.7649C20.6716 35.7896 20.7377 35.7908 20.8944 35.7676L21.1792 35.7254L20.9759 35.8104C20.864 35.8572 20.6608 35.9087 20.5242 35.9249C20.244 35.9581 20.2441 36.0114 20.5244 36.0399C20.6323 36.0508 20.7389 36.0982 20.7758 36.1516C20.8368 36.2401 20.8688 36.2386 21.4747 36.1193C22.1209 35.9921 22.313 35.9091 22.2859 35.7687C22.277 35.7224 22.3231 35.6896 22.4254 35.6691C22.6273 35.6288 22.918 35.4189 22.9876 35.2632C23.0674 35.0847 22.9944 34.7566 22.8554 34.6695C22.7465 34.6011 22.7556 34.5961 23.3523 34.3974C24.034 34.1704 25.211 33.8814 25.4089 33.8924C25.5775 33.9018 25.5999 34.0163 25.5797 34.7637C25.557 35.6004 25.4924 36.2137 25.4128 36.3477C25.3742 36.4126 25.3129 36.7064 25.2765 37.0007C25.1517 38.0102 25.0352 38.3124 24.6195 38.7046C23.9828 39.3053 22.9283 40.182 22.5245 40.4464C21.9045 40.8524 21.7993 40.9668 21.7559 41.2822C21.7036 41.6623 21.8133 42.211 21.9797 42.4022C22.1471 42.5945 22.5624 42.7622 22.883 42.7669C23.3552 42.7738 23.5436 42.6225 23.8924 41.9559C23.9631 41.8208 24.1046 41.6757 24.309 41.5286C24.542 41.361 24.6968 41.1928 24.9348 40.8485C25.1086 40.5969 25.5177 40.0648 25.8436 39.6661C26.1696 39.2673 26.503 38.8487 26.5846 38.7357C26.8113 38.4215 26.9904 37.9648 27.0789 37.4747C27.2947 36.2808 27.5293 35.4758 27.8196 34.9334C27.9844 34.6254 28.1437 34.0911 28.1455 33.8402C28.1468 33.6568 28.1679 33.6518 28.7462 33.6974C28.9916 33.7167 29.4962 33.7507 29.8675 33.7728C31.0447 33.8431 31.7706 34.0086 32.2885 34.3252C32.5211 34.4673 32.5624 34.5202 32.8075 34.9903C33.7623 36.8212 33.7916 36.891 33.6936 37.1102C33.6159 37.2841 33.6925 37.6843 33.8411 37.8804C34.0796 38.1951 34.6829 38.5065 35.0264 38.4922C35.3475 38.4788 35.6862 38.2833 35.7491 38.0749C35.8264 37.8186 35.6711 36.9474 35.4862 36.6002C35.4083 36.4539 35.2987 36.1714 35.2427 35.9723C35.1233 35.5484 34.9593 35.2405 34.7717 35.0882C34.5795 34.9322 33.7802 33.9555 33.3298 33.3264C33.1054 33.0129 32.8611 32.7284 32.7433 32.6432C32.5066 32.4722 31.8993 32.2205 31.0969 31.9609C30.0015 31.6065 29.7422 31.5187 29.6941 31.4865C29.6672 31.4683 29.6854 31.2356 29.7353 30.9594C29.8824 30.1473 29.8775 30.0394 29.6232 28.4932C29.4467 27.4206 29.3857 26.9232 29.3742 26.4643C29.3621 25.9825 29.2203 23.8638 29.1894 23.7033C29.1637 23.57 29.7398 23.7001 30.1311 23.9158C30.2872 24.0019 30.6177 24.1102 30.9127 24.172C31.3571 24.265 31.4752 24.3136 31.8166 24.5437C32.2794 24.8556 32.5534 24.9348 32.9138 24.8609C33.6222 24.7157 33.839 24.0665 33.5669 22.9056C33.4254 22.3016 33.3672 22.2231 32.6146 21.6213C32.2897 21.3614 31.8878 20.9915 31.7213 20.7992C31.1991 20.1958 30.7381 19.7397 30.3435 19.4361C30.134 19.2749 29.8785 19.0254 29.7758 18.8818C29.673 18.7381 29.5107 18.5598 29.4151 18.4855L29.2413 18.3505L29.2583 18.0814C29.2758 17.8051 29.2025 17.3221 29.1158 17.1436C29.0487 17.0052 28.9735 17.0332 28.8456 17.2444L28.7368 17.424L28.85 17.2802L28.9632 17.1364L28.9257 17.2658C28.9051 17.3369 28.8264 17.539 28.7508 17.7148C28.6751 17.8907 28.6091 18.0445 28.6039 18.0567C28.5986 18.0689 28.5824 18.0708 28.5678 18.0609C28.5532 18.0509 28.5752 17.9276 28.6167 17.7867L28.6922 17.5307L28.602 17.6946C28.5525 17.7848 28.5001 17.8498 28.4857 17.8392C28.4713 17.8285 28.4162 17.6667 28.3634 17.4795C28.2573 17.1042 28.2302 17.0576 28.129 17.0771C28.0406 17.0941 27.827 17.6237 27.7344 18.0555C27.6524 18.4382 27.6775 18.4201 27.0067 18.5802C26.721 18.6483 26.4772 18.7345 26.3781 18.8021C26.2331 18.9014 26.1692 18.9789 26.2594 18.9463C26.4425 18.8801 26.3806 18.9566 26.1373 19.0972C25.9719 19.1928 25.8276 19.2842 25.8167 19.3003C25.8058 19.3165 25.951 19.2892 26.1393 19.2398L26.4817 19.15L26.3089 19.2665C26.2138 19.3306 25.9529 19.5608 25.729 19.778C25.5051 19.9952 25.2404 20.2111 25.1408 20.2579C24.9977 20.3251 24.98 20.3459 25.0563 20.3573C25.1325 20.3686 25.1023 20.4033 24.9142 20.5214L24.6754 20.6711L24.9406 20.5905C25.0865 20.5461 25.2083 20.523 25.2115 20.5392C25.2146 20.5554 25.1077 20.6561 24.9739 20.7631C24.8401 20.8701 24.7026 20.9833 24.6683 21.0146C24.6341 21.0459 24.4754 21.1631 24.3157 21.275C24.0365 21.4707 23.9163 21.6016 24.1466 21.4591C24.208 21.4212 24.3242 21.3685 24.4047 21.342C24.6261 21.2692 24.8149 21.1769 24.8684 21.115C24.8948 21.0845 24.9561 21.0604 25.0045 21.0614C25.0733 21.0627 25.0616 21.0882 24.951 21.1773C24.8731 21.2401 24.7269 21.3366 24.6262 21.3919C24.0921 21.6846 23.8183 21.8763 23.4368 22.2249C23.2574 22.3888 23.2775 22.3858 23.6142 22.1985C23.8948 22.0424 24.5974 21.7149 24.6787 21.7024C24.8004 21.6836 24.3597 21.9768 24.1074 22.0825C23.7196 22.2449 23.613 22.3402 23.8659 22.2983L24.0552 22.2669L23.8179 22.4065C23.6874 22.4832 23.5727 22.5578 23.5629 22.5722C23.5532 22.5867 23.7254 22.5504 23.9458 22.4916C24.1661 22.4327 24.3485 22.3956 24.351 22.409C24.3536 22.4223 24.2093 22.5241 24.0304 22.6351C23.8515 22.7461 23.7298 22.8463 23.7599 22.8578C23.79 22.8693 23.7094 22.9682 23.5806 23.0777C23.4518 23.1872 23.3486 23.2879 23.3513 23.3015C23.3539 23.3151 23.3931 23.2962 23.4385 23.2594C23.4839 23.2225 23.652 23.1544 23.8121 23.1079L24.1032 23.0235L23.8432 23.219C23.7002 23.3265 23.4729 23.4519 23.338 23.4977C23.2031 23.5435 23.0228 23.6231 22.9374 23.6748L22.7821 23.7686L23.0271 23.7249C23.1619 23.7008 23.292 23.7027 23.3162 23.7291C23.3406 23.7556 23.3373 23.7683 23.309 23.7575C23.2571 23.7377 22.8092 24.0361 22.8185 24.0843C22.8213 24.0987 22.9358 24.0748 23.073 24.0313C23.3467 23.9444 23.592 23.9376 23.5615 24.0178C23.5508 24.0459 23.4706 24.0827 23.3832 24.0996C23.2032 24.1342 22.6638 24.3537 22.5001 24.4589C22.4168 24.5124 22.5058 24.5074 22.8824 24.4372C23.1524 24.3869 23.3657 24.3571 23.3563 24.3711C23.3469 24.3849 23.1302 24.448 22.8747 24.5112C22.6193 24.5744 22.3399 24.6601 22.2539 24.7015C22.1059 24.7729 22.1127 24.7746 22.3818 24.7318L22.666 24.6867L22.3538 24.8137C22.0573 24.9344 22.0338 24.9372 21.886 24.8697L21.7304 24.7985L21.8864 24.5866C22.1397 24.2425 22.1674 23.8682 21.9671 23.4961C21.6227 22.8564 21.3978 22.8222 20.7358 23.309L20.4146 23.5451L19.888 23.4969C19.5984 23.4703 19.2705 23.413 19.1593 23.3695C19.0482 23.326 18.9386 23.294 18.9158 23.2984C18.8738 23.3065 18.7576 22.5969 18.7223 22.1159C18.7054 21.8861 18.7205 21.8352 18.8421 21.7141C18.9427 21.6137 19.0489 21.5624 19.2259 21.5283C19.4086 21.4931 19.5393 21.4277 19.7425 21.27C20.0585 21.0246 20.1819 20.7866 20.1307 20.5209C20.097 20.3459 20.0991 20.343 20.3333 20.2421C20.4635 20.186 20.7423 20.0652 20.9529 19.9736C21.1634 19.882 21.7113 19.6466 22.1703 19.4506C22.6292 19.2545 23.4716 18.8944 24.0422 18.6504C24.6128 18.4063 25.6075 17.9821 26.2528 17.7076C28.6868 16.6721 30.2808 15.9789 31.7035 15.3372C33.5699 14.4954 35.7513 13.5446 35.9242 13.4977C36.0445 13.465 36.4262 13.3164 36.7725 13.1675C37.4862 12.8607 37.5453 12.8431 37.5626 12.9329C37.5712 12.9774 37.8601 12.8174 38.4901 12.4192C38.9933 12.1011 39.4174 11.8218 39.4324 11.7984C39.4474 11.775 39.2925 11.8009 39.0883 11.8558C38.8841 11.9107 38.3926 12.0189 37.9963 12.0963C37.3015 12.232 37.2773 12.2402 37.3228 12.3241C37.3587 12.3902 37.3452 12.4221 37.2663 12.4572C37.0992 12.5317 35.647 13.1553 34.1638 13.7895C33.4071 14.113 32.0071 14.7147 31.0527 15.1264C30.0982 15.5382 28.5769 16.1945 27.672 16.5848C26.7672 16.9752 25.4394 17.5492 24.7214 17.8604C24.0034 18.1715 23.334 18.4529 23.2338 18.4855C23.1336 18.5182 22.8782 18.6212 22.6662 18.7143C22.251 18.8966 21.3896 19.2651 20.2729 19.7381C19.8881 19.9011 19.5203 20.0596 19.4557 20.0902C19.3488 20.1409 19.3382 20.1349 19.3381 20.0232C19.3379 19.9147 19.315 19.8989 19.1397 19.8861C18.8301 19.8634 18.54 20.0098 18.2845 20.3174L18.0706 20.575L17.828 20.1711C17.6946 19.949 17.5691 19.7368 17.5491 19.6995C17.5228 19.6506 17.5752 19.5945 17.7368 19.4986C17.9547 19.3693 18.5437 18.8347 18.5833 18.7303C18.5942 18.7018 18.5292 18.5217 18.4389 18.3301C18.3486 18.1386 18.2475 17.8402 18.2141 17.6671C18.147 17.3184 17.9024 16.7613 17.7063 16.5105C17.5432 16.3019 17.2161 16.0813 16.9764 16.0185C16.7375 15.9558 16.1083 16.0497 15.8066 16.193ZM16.1922 16.2937L15.9502 16.4315L16.2394 16.3808C16.7593 16.2897 16.8175 16.3039 17.0238 16.5713C17.2467 16.8604 17.5217 17.367 17.558 17.5554C17.588 17.7115 17.525 17.765 17.1601 17.8925C16.9656 17.9605 16.9455 17.9783 17.0222 18.0146C17.1052 18.0538 17.1101 18.0775 17.0868 18.3231L17.0616 18.5891L16.9546 18.4924C16.8116 18.3632 16.7163 18.1139 16.7715 18.0133C16.7953 17.9698 16.8 17.9241 16.7818 17.9118C16.727 17.8746 16.6149 18.2348 16.6421 18.3608C16.6645 18.4649 16.6718 18.4678 16.7065 18.3869C16.7398 18.3094 16.7754 18.3465 16.9433 18.6335C17.052 18.8194 17.1377 18.976 17.1338 18.9816C17.1299 18.9873 16.9243 18.9674 16.6769 18.9374C15.624 18.81 15.3732 18.8229 15.7869 18.9834C15.9149 19.033 15.9743 19.0667 15.919 19.0581C15.4374 18.9838 15.1104 18.93 15.0946 18.9224C15.0842 18.9173 15.0958 18.7731 15.1204 18.6019C15.145 18.4306 15.1578 18.0254 15.1489 17.7013C15.1261 16.8778 15.12 16.8946 15.4647 16.8283C15.7731 16.7689 16.3779 16.7986 16.5838 16.8833C16.6546 16.9124 16.7346 16.9237 16.7619 16.9084C16.8408 16.864 15.8462 16.6144 15.619 16.6216L15.4131 16.6281L15.5353 16.5302C15.721 16.3813 15.9762 16.2596 16.217 16.2051L16.4341 16.1559L16.1922 16.2937ZM38.2517 12.2014C37.8405 12.3475 37.6475 12.3968 37.5628 12.3774C37.3154 12.321 37.4939 12.2439 38.1539 12.122L38.8229 11.9985L38.2517 12.2014ZM35.4833 13.4165C35.4101 13.4549 35.1676 13.5644 34.9443 13.66C34.7211 13.7555 34.2248 13.9731 33.8414 14.1436C32.7901 14.611 31.6187 15.1181 30.6825 15.5108C29.9664 15.8113 29.4491 16.0358 28.4568 16.477C28.2662 16.5618 27.0171 17.0897 26.335 17.3738C26.1113 17.467 25.6843 17.6455 25.3861 17.7704C25.088 17.8954 24.5899 18.1041 24.2794 18.2342C23.9688 18.3643 23.484 18.5701 23.2021 18.6914C22.9202 18.8127 22.2798 19.0804 21.7789 19.2863C21.278 19.4921 20.8173 19.6816 20.7551 19.7073C20.6929 19.733 20.6504 19.7404 20.6607 19.7239C20.6709 19.7073 21.1963 19.4696 21.8282 19.1956C22.4602 18.9216 23.2601 18.5695 23.606 18.4132C24.3391 18.0819 25.7932 17.4521 26.7602 17.047C27.1329 16.8909 27.8734 16.5719 28.4057 16.3382C28.938 16.1046 29.7189 15.768 30.1412 15.5904C30.5635 15.4128 31.0409 15.2112 31.2022 15.1425C31.3635 15.0738 31.7903 14.8946 32.1507 14.7442C32.5111 14.5939 33.1615 14.3209 33.5961 14.1375C35.0401 13.5282 35.8893 13.2038 35.4833 13.4165ZM15.5412 17.5908C15.6359 17.6518 16.6558 17.5805 16.5655 17.5193C16.5274 17.4935 15.7535 17.5058 15.6036 17.5346C15.5331 17.5481 15.5089 17.57 15.5412 17.5908ZM17.4829 18.0811C17.479 18.1516 17.4548 18.3156 17.4291 18.4458L17.3825 18.6824L17.3573 18.4185L17.3321 18.1546L17.2906 18.4314L17.2491 18.7081L17.2169 18.3967C17.1991 18.2254 17.1906 18.0676 17.198 18.046C17.2053 18.0244 17.274 17.9947 17.3506 17.98C17.4771 17.9556 17.4893 17.965 17.4829 18.0811ZM17.5972 18.3784L17.5547 18.5515L17.5377 18.3164C17.5144 17.9948 17.5421 17.8752 17.5969 18.0608C17.6204 18.1403 17.6205 18.2832 17.5972 18.3784ZM15.44 19.1058C15.8449 19.1746 16.3166 19.2994 16.3854 19.3559C16.416 19.3812 16.4661 19.4555 16.4967 19.521C16.5507 19.6371 16.5477 19.6401 16.3831 19.6349C16.2901 19.6319 16.0534 19.5814 15.8569 19.5227C15.6604 19.4639 15.3445 19.38 15.1548 19.3361C14.8872 19.2742 14.8056 19.2341 14.7908 19.1574C14.7738 19.0689 14.791 19.0583 14.9545 19.0565C15.055 19.0553 15.2734 19.0775 15.44 19.1058ZM15.1711 19.6092C15.4741 19.7452 15.824 20.0476 15.9377 20.2719C15.9754 20.3462 16.0022 20.4128 15.9973 20.4199C15.9925 20.427 15.9027 20.4097 15.798 20.3815C15.6342 20.3374 15.1011 20.319 14.9314 20.3517C14.8152 20.3741 14.9005 20.4492 15.0464 20.4531C15.1996 20.4571 15.5693 20.5687 15.5456 20.6038C15.5387 20.614 15.3671 20.6117 15.1642 20.5987C14.644 20.5653 14.2191 20.6555 13.8438 20.8788C13.6769 20.9781 13.5176 21.0638 13.4899 21.0691C13.4578 21.0753 13.4332 20.998 13.4221 20.8567C13.4013 20.5911 13.5391 20.2633 13.7482 20.0807L13.8944 19.953L13.7525 20.1451C13.6237 20.3196 13.5384 20.5126 13.5541 20.5943C13.5575 20.6116 13.6302 20.5089 13.7156 20.3661C13.8637 20.1186 14.1405 19.8758 14.5669 19.6192C14.8166 19.4689 14.8569 19.4682 15.1711 19.6092ZM16.2729 19.8332C16.3796 19.8563 16.5312 19.8765 16.6098 19.8781C16.7352 19.8807 16.7738 19.9184 16.9254 20.1861C17.0204 20.3538 17.1096 20.556 17.1237 20.6354L17.1493 20.7798L17.0574 20.6509C16.9666 20.5235 16.9661 20.5251 17.0141 20.7948C17.0565 21.0328 17.0501 21.0753 16.9644 21.1274C16.7867 21.2354 16.2566 21.4343 16.2174 21.4078C16.1963 21.3934 16.2091 21.2624 16.246 21.1167C16.3476 20.7144 16.2562 20.3137 15.9818 19.9575C15.8658 19.8071 15.7694 19.6757 15.7675 19.6656C15.7655 19.6555 15.8348 19.6796 15.9214 19.7192C16.008 19.7589 16.1662 19.8101 16.2729 19.8332ZM28.0602 17.5668C27.9764 18.0062 27.792 18.4752 27.7628 18.3235C27.7364 18.1864 28.011 17.3442 28.0868 17.3296C28.0975 17.3275 28.0855 17.4343 28.0602 17.5668ZM14.8168 20.8134C14.7104 20.8649 14.7132 20.8677 14.8772 20.8733C14.9718 20.8765 15.1665 20.9061 15.3099 20.939C15.5676 20.9981 15.5717 21.0018 15.6516 21.2456C15.696 21.3814 15.7686 21.5588 15.8129 21.6399C15.8843 21.7706 15.8831 21.8042 15.8026 21.9351C15.7526 22.0164 15.6795 22.157 15.6402 22.2476C15.5612 22.4296 15.4563 22.9814 15.4957 23.0081C15.5094 23.0174 15.5846 22.8821 15.6628 22.7074C15.81 22.3787 16.065 22.0393 16.1816 22.0168C16.2847 21.9969 16.4781 22.2939 16.5635 22.603C16.6291 22.8407 16.6287 22.9081 16.561 23.0645C16.4481 23.3252 16.1307 23.6436 15.91 23.7177L15.7239 23.7801L15.8731 23.842C16.0321 23.9079 15.9694 23.9504 15.7937 23.8957C15.6717 23.8578 15.5047 23.6248 15.4699 23.4441C15.4551 23.3672 15.3691 23.2609 15.2475 23.1692C14.9932 22.9773 14.699 22.5953 14.5078 22.2086C14.3384 21.866 14.1634 21.1415 14.2122 20.9843C14.247 20.8721 14.4196 20.8036 14.7364 20.7761C14.9031 20.7616 14.9138 20.7666 14.8168 20.8134ZM14.1321 21.3975C14.1752 21.6378 14.2465 21.9319 14.2905 22.0511C14.3441 22.196 14.3541 22.271 14.3206 22.2774C14.2932 22.2827 14.2614 22.239 14.2501 22.1803C14.2388 22.1217 14.1687 21.9986 14.0942 21.9069C14.0198 21.8151 13.9208 21.6271 13.8743 21.4891C13.7965 21.2581 13.7974 21.2276 13.8865 21.1061C13.9398 21.0335 13.9991 20.9711 14.0185 20.9673C14.0378 20.9636 14.089 21.1572 14.1321 21.3975ZM18.9357 20.193C18.5964 20.4622 18.5745 20.6412 18.8609 20.8042L19.0049 20.8862L18.8876 20.9106C18.78 20.933 18.7781 20.9389 18.8647 20.9817C18.9996 21.0485 18.9915 21.0649 18.7687 21.1763C18.5496 21.2858 18.4872 21.2755 18.1755 21.0791C18.011 20.9753 17.9982 21.0202 18.1348 21.2229L18.2209 21.3506L17.8572 21.6307C17.5461 21.8704 17.4842 21.9022 17.4285 21.851C17.3754 21.802 17.359 21.8263 17.3387 21.983C17.3237 22.0998 17.2667 22.2167 17.1935 22.2816C17.059 22.4005 17.0579 22.3993 17.0089 22.0774C16.997 21.999 16.9599 21.9072 16.9265 21.8733C16.882 21.8282 16.8779 21.8759 16.9113 22.0522C16.967 22.3461 16.9363 22.5905 16.8332 22.6742C16.719 22.7669 16.7204 22.7685 16.6296 22.4558C16.5834 22.2968 16.5084 22.0484 16.4629 21.9039C16.3833 21.6506 16.3844 21.6394 16.4935 21.5885C16.5558 21.5594 16.6504 21.5493 16.7038 21.5659C16.7681 21.5859 16.826 21.5749 16.8753 21.5332C16.9274 21.4893 17.0161 21.4796 17.1705 21.5011C17.3833 21.5308 17.399 21.5258 17.6063 21.3628C17.7245 21.2698 17.9717 20.9946 18.1555 20.7511C18.5395 20.2428 18.6823 20.1198 18.9455 20.0707L19.1341 20.0356L18.9357 20.193ZM14.9218 21.3309C14.9827 21.6714 15.3077 22.3317 15.4052 22.3129C15.5 22.2947 15.2372 21.6129 15.0162 21.3036L14.8838 21.1183L14.9218 21.3309ZM26.3244 19.6702C26.0223 19.9924 25.736 20.6645 25.1892 22.3346C24.972 22.9981 24.77 23.5084 24.6079 23.8026C24.4714 24.0507 24.3492 24.2556 24.3365 24.258C24.3237 24.2605 24.4479 23.9452 24.6124 23.5574C24.9157 22.8426 25.0093 22.5888 25.1845 22.0057C25.3403 21.487 25.7281 20.4657 25.8668 20.2086C26.0036 19.9551 26.3575 19.5196 26.4395 19.5038C26.467 19.4985 26.4152 19.5734 26.3244 19.6702ZM30.0501 19.5995C30.5243 19.9352 30.887 20.2621 31.133 20.5754C31.2416 20.7137 31.4613 20.9683 31.6212 21.1411C32.0235 21.5759 32.0409 21.6007 31.8341 21.4459C31.6702 21.3231 30.7595 20.428 30.6909 20.3222C30.6514 20.2613 30.4003 20.0312 30.1178 19.7972C29.8204 19.5508 29.5589 19.2873 29.5486 19.2236C29.5443 19.197 29.5731 19.2126 29.6127 19.258C29.6522 19.3035 29.849 19.4571 30.0501 19.5995ZM18.6053 21.7265C18.5018 21.816 18.264 22.0072 18.0769 22.1512C17.7659 22.3907 17.3612 22.7294 17.0153 23.0395C16.9408 23.1063 16.8778 23.1499 16.8753 23.1364C16.8651 23.0838 17.6461 22.349 18.0099 22.0689C18.5753 21.6335 18.9871 21.3967 18.6053 21.7265ZM14.1036 22.5599C13.9878 22.6342 13.5529 22.7848 13.5824 22.7404C13.6087 22.7007 13.9558 22.555 14.0967 22.5245L14.1905 22.5042L14.1036 22.5599ZM14.7576 22.8892C14.828 22.9896 14.9719 23.149 15.0773 23.2434C15.1828 23.3378 15.2783 23.4626 15.2897 23.5207C15.3321 23.738 15.4904 23.9814 15.6579 24.0868C15.8034 24.1783 15.8586 24.1864 16.0044 24.1375C16.1009 24.1051 16.2679 23.984 16.3808 23.8645C16.4925 23.7464 16.6102 23.6448 16.6426 23.6389C16.675 23.6329 16.8218 23.6582 16.9689 23.6952C17.1755 23.747 17.249 23.7912 17.2913 23.8892C17.3214 23.959 17.3553 24.0361 17.3666 24.0607C17.3779 24.0852 17.6106 24.1342 17.8837 24.1695C18.1992 24.2104 18.31 24.2388 18.1877 24.2474C17.9226 24.2661 16.3578 24.4351 15.892 24.4953C15.432 24.5548 15.5198 24.6023 16.0448 24.5781C16.2525 24.5685 16.4973 24.5846 16.5888 24.614L16.7551 24.6674L16.336 24.7725C15.9293 24.8746 15.9244 24.8772 16.1725 24.863C16.9451 24.8188 17.2968 24.842 17.5147 24.9515C17.676 25.0325 17.7408 25.0957 17.7589 25.1897C17.7932 25.368 17.8955 25.4218 18.2187 25.4315C18.3723 25.4362 18.4912 25.4501 18.4828 25.4625C18.4744 25.475 18.2317 25.5072 17.9436 25.5341C17.6554 25.5609 16.9726 25.6542 16.4263 25.7411L15.433 25.8993L15.3518 25.6988C15.2397 25.422 15.2775 24.5854 15.4033 24.5612C15.4268 24.5567 15.3889 24.4984 15.3191 24.4318C15.0836 24.207 14.7907 23.744 14.609 23.3094C14.4146 22.8441 14.4037 22.7501 14.5411 22.7237C14.5997 22.7124 14.6728 22.7683 14.7576 22.8892ZM18.6501 23.0053C18.7764 23.7337 18.8397 23.9425 18.8544 23.679C18.8582 23.6098 18.8791 23.5498 18.9009 23.5456C18.9226 23.5414 19.0774 23.5773 19.2448 23.6253C19.4123 23.6733 19.5812 23.7073 19.6202 23.7008C19.6592 23.6943 19.8743 23.7051 20.098 23.7249L20.5049 23.7608L20.6797 23.6113C20.8348 23.4789 20.876 23.4641 21.0435 23.4811C21.172 23.4941 21.2723 23.4773 21.3573 23.4284C21.641 23.2654 21.705 23.4208 21.4624 23.6833C21.2861 23.8741 21.0551 23.96 20.9357 23.879C20.8865 23.8457 20.8567 23.852 20.813 23.9052C20.7659 23.9626 20.7444 23.9569 20.6956 23.8745C20.6476 23.7932 20.641 23.8251 20.6618 24.0372L20.6878 24.301L20.2987 24.3612C20.0847 24.3943 19.8131 24.4103 19.6953 24.3967L19.481 24.372L19.7619 24.3096L20.0428 24.2472L19.7446 24.2064C19.5806 24.184 19.3978 24.1438 19.3382 24.1171C19.1842 24.0482 19.087 24.0752 19.1509 24.1694C19.1791 24.2109 19.2455 24.4007 19.2983 24.591C19.4124 25.0015 19.4069 24.9995 20.0767 24.878C20.6558 24.773 20.811 24.8342 21.1231 25.2903C21.2444 25.4677 21.4033 25.6803 21.4761 25.7629C21.5489 25.8454 21.6093 25.9172 21.6103 25.9224C21.6113 25.9275 21.5155 25.9426 21.3974 25.9557C21.1965 25.978 21.172 25.9959 21.0173 26.2318C20.9263 26.3705 20.7901 26.5328 20.7145 26.5924C20.5513 26.7211 19.9244 26.9045 19.8657 26.8406C19.8439 26.817 19.7596 26.5877 19.6782 26.3312C19.5415 25.8996 19.5279 25.8754 19.4967 26.0071C19.4684 26.1266 19.4373 26.0083 19.3034 25.2726L19.1438 24.3957L18.8997 24.0797C18.7654 23.906 18.6432 23.7003 18.6281 23.6225C18.5839 23.3936 18.4765 22.259 18.4988 22.2547C18.51 22.2525 18.5781 22.5903 18.6501 23.0053ZM23.5272 22.9478C23.4932 22.9804 23.4866 23.003 23.5125 22.998C23.5384 22.9931 23.5874 22.9623 23.6214 22.9297C23.6554 22.8971 23.662 22.8745 23.6361 22.8795C23.6102 22.8845 23.5612 22.9153 23.5272 22.9478ZM23.5058 23.6656C23.4932 23.6843 23.4529 23.6938 23.4163 23.6867C23.3758 23.6789 23.3848 23.6656 23.4393 23.6528C23.4885 23.6412 23.5184 23.647 23.5058 23.6656ZM32.8354 22.1449C33.1433 22.4275 33.1983 22.5379 33.3191 23.1161C33.4353 23.6722 33.4229 24.0379 33.2795 24.2821C33.1731 24.4632 33.1597 24.4253 33.1846 24.0134C33.2132 23.5392 33.0688 23.0286 32.8063 22.6758C32.6013 22.4004 32.4535 21.9619 32.5588 21.9416C32.5839 21.9368 32.7083 22.0283 32.8354 22.1449ZM16.2102 25.9451C16.498 25.9337 16.8175 25.9382 16.92 25.955L17.1066 25.9855L16.7788 26.0578L16.451 26.1301L16.7177 26.1207C17.34 26.0989 17.8411 26.1108 17.9225 26.1493C17.9742 26.1737 18.0273 26.2655 18.0528 26.3745L18.0957 26.5585L18.4154 26.5707L18.735 26.5829L18.4311 26.6525C17.6062 26.8414 16.5204 27.2232 15.974 27.5165C15.8466 27.585 15.7233 27.6281 15.7001 27.6123C15.6334 27.5671 15.4872 26.7008 15.4917 26.3767C15.4972 25.9674 15.5018 25.9496 15.5999 25.9582C15.6478 25.9623 15.9225 25.9565 16.2102 25.9451ZM22.8908 24.7132C22.8927 24.7231 22.8519 24.7394 22.8001 24.7494C22.7484 24.7593 22.7023 24.7483 22.6978 24.7248C22.6932 24.7013 22.734 24.685 22.7884 24.6886C22.8428 24.6922 22.8889 24.7033 22.8908 24.7132ZM21.9453 25.3807C21.9464 25.3863 21.9058 25.4107 21.8551 25.435C21.786 25.4681 21.7331 25.4462 21.6431 25.3472C21.4642 25.1502 21.4847 25.1275 21.7259 25.2553C21.8455 25.3187 21.9443 25.3751 21.9453 25.3807ZM22.4884 25.0488C22.5541 25.0609 22.5705 25.0814 22.5382 25.1112C22.5117 25.1356 22.4252 25.1349 22.3459 25.1097C22.2275 25.0722 22.2186 25.061 22.2961 25.0473C22.348 25.0381 22.4346 25.0388 22.4884 25.0488ZM28.9815 24.9061C29.0449 25.5103 29.1002 26.1909 29.1044 26.4185C29.1167 27.0851 29.193 27.7785 29.3357 28.5191C29.4972 29.3582 29.5486 30.2016 29.4648 30.6373C29.4307 30.8141 29.3954 30.9537 29.3862 30.9475C29.377 30.9413 29.3881 30.7458 29.4109 30.5131C29.4487 30.1278 29.4336 29.9733 29.2427 28.7864C29.0076 27.3249 28.9857 27.1295 28.9725 26.3706C28.9673 26.076 28.9342 25.4556 28.8989 24.9921C28.8256 24.0311 28.8139 23.7722 28.8445 23.793C28.8564 23.8011 28.918 24.302 28.9815 24.9061ZM22.0408 25.4854C22.0632 25.5098 22.1119 25.5107 22.1492 25.4876C22.1864 25.4644 22.2979 25.4561 22.397 25.4691L22.5772 25.4928L22.363 25.6482L22.1488 25.8036L21.992 25.6863C21.9057 25.6218 21.8311 25.5481 21.8262 25.5226C21.8142 25.4601 21.9896 25.4296 22.0408 25.4854ZM22.5568 25.8942C22.4089 26.0722 22.4125 26.0715 22.2511 25.9546L22.1179 25.8581L22.3968 25.8046L22.6757 25.7512L22.5568 25.8942ZM21.9655 26.1693C22.0536 26.2258 22.1703 26.3282 22.2248 26.3968C22.3487 26.553 22.4338 27.0227 22.3746 27.2238C22.2983 27.4827 22.0141 27.8377 21.6711 28.1026C21.2983 28.3904 21.1787 28.4222 21.4881 28.1512C21.7554 27.9169 22.1248 27.3923 22.1962 27.1452C22.3096 26.7531 22.0777 26.3085 21.6793 26.154L21.4682 26.0722L21.6368 26.0694C21.7295 26.0679 21.8775 26.1128 21.9655 26.1693ZM15.2644 28.2321C15.3564 28.2835 15.5234 28.4392 15.6357 28.5782C15.9762 28.9997 16.2303 29.1643 16.6752 29.2514L17.0668 29.3281L16.8192 29.3517C16.4391 29.3878 16.0113 29.2417 15.6102 28.9388L15.2647 28.6779L15.0192 29.0065C14.633 29.5236 14.0453 30.1169 13.3653 30.6764C11.8576 31.9171 11.7116 32.2485 11.8064 34.2157C11.9085 36.336 11.7005 37.1178 10.7983 38.0032C10.3076 38.4849 10.1978 38.7031 10.0263 39.5382C9.92435 40.0349 9.68758 40.6183 9.44537 40.9696C9.27304 41.2195 8.67231 41.7395 8.52248 41.7684C8.47197 41.7781 8.47426 41.8059 8.53326 41.9007C8.67009 42.1201 8.82662 42.8381 8.78123 43.038L8.74059 43.2168L8.6795 42.9201C8.62409 42.6512 8.50704 42.3805 8.29888 42.0401C8.23744 41.9396 8.20399 41.9259 8.1182 41.9658C7.93289 42.0523 7.99678 41.9805 8.3315 41.7263C8.74829 41.4098 8.98397 41.1346 9.20922 40.7013C9.43032 40.2761 9.48575 40.0853 9.58177 39.4196C9.68315 38.7168 9.78738 38.5109 10.2935 38.0136C10.6802 37.6335 10.8367 37.3902 10.9859 36.9362C11.1164 36.5392 11.2571 35.5186 11.2508 35.0144C11.2488 34.8547 11.2169 34.3908 11.1798 33.9836C11.0618 32.6874 11.0851 32.0159 11.2638 31.5615C11.4824 31.0056 11.9656 30.3647 12.8706 29.4299C13.5346 28.7442 14.202 28.3193 14.8071 28.1972C15.0523 28.1477 15.123 28.1531 15.2644 28.2321ZM9.89256 29.7499C8.99905 30.2637 8.26837 30.9875 8.03254 31.5922C7.97216 31.7471 7.8908 32.1234 7.8517 32.4285C7.74496 33.2626 7.50571 33.7454 6.76124 34.629L6.44354 35.0061L6.80679 34.4736C7.39984 33.6043 7.61106 33.089 7.71671 32.2535C7.74591 32.0226 7.81245 31.7206 7.86459 31.5825C8.00482 31.2109 8.48332 30.6439 8.98158 30.2589C9.22294 30.0723 10.1283 29.5431 10.2447 29.5205C10.2835 29.5129 10.1251 29.6162 9.89256 29.7499ZM22.7221 27.7286C22.6648 27.9175 22.2694 28.4811 22.1035 28.6102C21.8616 28.7984 21.3444 29.0933 21.2578 29.0925C21.2076 29.0919 21.2733 29.0344 21.4134 28.9562C21.9054 28.6815 22.1198 28.4841 22.4293 28.0206C22.596 27.7709 22.7402 27.5698 22.7496 27.5738C22.7591 27.5778 22.7467 27.6474 22.7221 27.7286ZM9.71808 30.6095C9.70912 30.621 9.65366 30.6659 9.59488 30.7093C9.49411 30.7835 9.49242 30.7828 9.56525 30.6971C9.62866 30.6226 9.77177 30.5405 9.71808 30.6095ZM15.6611 29.6575C16.0634 29.8518 16.6725 29.97 17.1998 29.9559C17.3133 29.953 17.4615 29.9811 17.5292 30.0186C17.6522 30.0867 17.6522 30.0867 17.3534 30.1459C16.7934 30.2568 16.246 30.1635 15.7724 29.8764C15.5586 29.7468 15.3984 29.5955 15.462 29.5833C15.4798 29.5799 15.5695 29.6132 15.6611 29.6575ZM26.343 27.8992C26.6275 27.9585 27.3097 28.4823 27.8546 29.0596C28.2818 29.5122 28.6279 30.2003 28.5402 30.4227C28.503 30.517 28.1824 30.168 27.6933 29.5007C27.2414 28.8841 27.133 28.7798 26.7612 28.6026C26.4374 28.4484 26.1068 28.4071 25.6276 28.461C25.1759 28.5118 25.0559 28.4699 25.1703 28.3011C25.3447 28.0438 25.985 27.8244 26.343 27.8992ZM8.21953 32.3708C8.1837 32.7606 8.09382 33.1797 7.97728 33.5006C7.87539 33.781 7.34611 34.6159 7.25968 34.6325C7.23722 34.6368 7.32067 34.4746 7.44511 34.2721C7.5696 34.0695 7.66726 33.882 7.66213 33.8554C7.657 33.8288 7.6764 33.7678 7.70519 33.7198C7.82459 33.521 8.01072 32.861 8.05776 32.4695C8.11891 31.9611 8.12884 31.9292 8.19239 32.0371C8.21988 32.0838 8.2321 32.234 8.21953 32.3708ZM7.0836 32.5665C7.01388 32.6598 6.93549 32.7402 6.90941 32.7452C6.83697 32.7592 6.95792 32.5003 7.04308 32.4593C7.19965 32.3838 7.20659 32.402 7.0836 32.5665ZM18.8601 30.2364C18.828 30.3211 18.9787 30.3288 19.4567 30.2667C19.7447 30.2294 19.894 30.1927 19.8879 30.161C19.8747 30.0925 19.7141 30.0865 19.268 30.1376C19.0213 30.1658 18.8733 30.2017 18.8601 30.2364ZM5.65501 34.9252C5.64106 34.9458 5.63578 34.9945 5.64327 35.0334C5.65972 35.1188 5.71104 35.055 5.70656 34.9546C5.70302 34.8756 5.69259 34.8697 5.65501 34.9252ZM26.6608 32.3819C27.1619 32.7459 27.6513 32.9204 28.4431 33.017C28.8199 33.0631 29.4028 33.0945 29.7385 33.0868C30.5503 33.0684 31.2688 33.1054 31.6062 33.1831C32.0517 33.2858 32.508 33.5672 32.7784 33.9058C33.0686 34.2694 33.3986 34.8121 33.6511 35.3409C33.901 35.8644 33.9474 35.9361 34.311 36.3612C34.4792 36.5579 34.6429 36.7822 34.6749 36.8596C34.7354 37.0065 34.939 37.1535 35.1588 37.209C35.4302 37.2776 34.9444 37.3196 34.6216 37.2555C34.4499 37.2214 34.3033 37.2025 34.2958 37.2136C34.2883 37.2246 34.387 37.2972 34.515 37.3748L34.7477 37.5159L34.7044 37.794C34.6806 37.9469 34.6398 38.084 34.6138 38.0986C34.4781 38.1749 33.8781 37.6567 33.8334 37.4245C33.8194 37.3519 33.8359 37.1881 33.8701 37.0605C33.9286 36.8417 33.9251 36.8107 33.809 36.5211C33.7412 36.3521 33.4364 35.7671 33.1316 35.2211C32.5047 34.0978 32.4609 34.0512 31.7914 33.7926C31.2339 33.5773 30.7994 33.5018 29.7962 33.4458C28.4026 33.3681 28.0214 33.3265 27.6271 33.2096C27.0147 33.0281 26.3572 32.5072 26.131 32.0245C26.0808 31.9173 26.0844 31.9177 26.2128 32.0332C26.2866 32.0996 26.4882 32.2565 26.6608 32.3819ZM19.938 33.7058C20.0013 34.0392 20.3148 34.8397 20.4064 34.9018C20.484 34.9544 20.3005 34.2524 20.131 33.8485C19.9375 33.3876 19.8678 33.336 19.938 33.7058ZM16.3178 35.4586C16.3734 35.7351 16.304 35.8998 15.8944 36.463C15.3937 37.1512 15.2753 37.3904 15.32 37.6224C15.3777 37.9222 15.7393 38.0944 17.5414 38.6802C18.3073 38.9291 18.762 39.1524 18.9087 39.3515C19.0032 39.4798 19.0617 39.5018 19.4198 39.5432C19.6422 39.5689 19.9193 39.6275 20.0355 39.6734L20.2468 39.7568L20.0772 39.7633C19.7656 39.7751 19.2317 39.8057 19.1799 39.8147C19.1468 39.8204 19.1542 39.9175 19.201 40.0906C19.2597 40.3078 19.3218 40.4079 19.5331 40.6264C20.0621 41.1733 20.0669 41.212 19.5679 40.908C19.319 40.7565 19.0725 40.6253 19.02 40.6165C18.9381 40.6029 18.9219 40.5669 18.9073 40.3654C18.8803 39.993 18.6899 39.6703 18.3723 39.4583C18.1322 39.298 17.4363 38.9767 17.3609 38.9912C17.3439 38.9945 17.1341 38.9234 16.8948 38.8332C16.6555 38.7431 16.2505 38.6334 15.9947 38.5895C15.3355 38.4763 15.0672 38.3904 14.8527 38.2238C14.6862 38.0944 14.6647 38.0564 14.6591 37.8826C14.6498 37.5908 14.8858 37.1297 15.4742 36.2901C15.9783 35.5707 16.0937 35.3296 16.0545 35.0783C16.0284 34.9114 16.2811 35.2763 16.3178 35.4586ZM6.10363 37.0786C6.0962 37.1204 6.0818 37.1561 6.07163 37.1581C6.06146 37.16 6.047 37.1298 6.03952 37.091C6.03203 37.0521 6.04643 37.0163 6.07152 37.0115C6.09656 37.0067 6.11102 37.0369 6.10363 37.0786ZM6.56023 37.0273C6.5507 37.0359 6.49449 37.1055 6.43541 37.182C6.37634 37.2586 6.32345 37.2978 6.31795 37.2693C6.30309 37.1921 6.41646 37.0428 6.50246 37.0262C6.54374 37.0183 6.56976 37.0188 6.56023 37.0273ZM19.9192 34.7892C19.8973 34.8312 19.8801 34.9244 19.8811 34.9964C19.8824 35.1045 19.9343 35.1617 20.181 35.3267C20.5179 35.552 20.6489 35.5268 20.322 35.2995C20.1604 35.1871 20.093 35.1011 20.0349 34.9328C19.9753 34.7602 19.9504 34.7294 19.9192 34.7892ZM25.8724 34.113C26.1068 34.5528 26.2315 35.2496 26.2091 35.9928C26.1601 37.6176 25.9447 38.1753 25.0699 38.9437C23.6897 40.1557 22.7275 41.0329 22.593 41.2019C22.4715 41.3544 22.4496 41.4158 22.49 41.4905C22.5607 41.621 22.807 41.8487 23.0124 41.9736C23.1336 42.0472 23.1542 42.073 23.0829 42.062C22.9421 42.0403 22.6949 41.9324 22.4883 41.8025L22.3129 41.6923L22.309 41.967C22.3068 42.118 22.2966 42.2433 22.2861 42.2453C22.2757 42.2473 22.2193 42.1884 22.161 42.1142C22.0338 41.9527 21.9305 41.4854 21.9642 41.224C21.9891 41.0307 22.0442 40.9789 22.7954 40.4421C23.6206 39.8523 24.9985 38.6265 25.1875 38.314C25.3375 38.0661 25.416 37.7713 25.5109 37.1C25.6423 36.1702 25.7423 34.218 25.6769 33.859C25.6576 33.7526 25.7318 33.8492 25.8724 34.113ZM20.7286 35.1677C20.5515 35.4339 20.5485 35.4454 20.6668 35.4123C20.735 35.3932 20.832 35.3301 20.8824 35.2721C20.9437 35.2014 20.9485 35.1815 20.8972 35.2117C20.7931 35.2727 20.7891 35.2088 20.8873 35.0535C20.9319 34.9828 20.9563 34.9167 20.9414 34.9067C20.9266 34.8966 20.8308 35.0141 20.7286 35.1677ZM21.3604 35.5088C21.4135 35.9036 21.4123 35.954 21.3534 35.8034C21.2519 35.544 21.2243 35.3699 21.2543 35.1796C21.2687 35.0883 21.284 35.0178 21.2883 35.023C21.2927 35.0282 21.3251 35.2468 21.3604 35.5088ZM19.9421 35.4928C19.955 35.5472 19.9683 35.5562 19.9761 35.5158C19.9831 35.4792 19.9736 35.4388 19.9549 35.4262C19.9363 35.4136 19.9306 35.4435 19.9421 35.4928ZM21.6616 35.143C21.8701 35.176 21.8792 35.2137 21.7033 35.3158C21.5054 35.4307 21.4879 35.4275 21.4576 35.2702C21.4268 35.11 21.4322 35.1067 21.6616 35.143ZM7.47143 42.8949C7.54963 43.1859 7.57112 43.355 7.55071 43.5193C7.53527 43.6432 7.51489 43.7186 7.5054 43.6868C7.48024 43.6026 7.26433 42.4741 7.24394 42.32C7.22757 42.1967 7.23061 42.1981 7.29537 42.3424C7.33319 42.4267 7.41241 42.6754 7.47143 42.8949Z" fill="#E5D2A5"/>
</svg>
