<svg width="24" height="24" viewBox="0 0 24 24" fill="none" xmlns="http://www.w3.org/2000/svg">
<path fill-rule="evenodd" clip-rule="evenodd" d="M0.861502 0.148726C0.443126 0.354773 0.0879915 0.840767 0.0277544 1.28953C-0.0807099 2.09777 -0.116365 2.05547 5.00538 7.189L9.80089 11.9955L5.00538 16.802C-0.109328 21.9284 -0.0805224 21.8944 0.0267221 22.6936C0.118767 23.38 0.818343 24 1.50065 24C2.1672 24 2.41228 23.785 7.24832 18.9563L12.0101 14.202L16.7718 18.9563C20.0474 22.2269 21.6424 23.7559 21.8824 23.8554C22.3654 24.0556 22.7817 24.034 23.2205 23.7855C23.9103 23.395 24.181 22.6003 23.8753 21.8634C23.7757 21.6235 22.246 20.0292 18.974 16.7551L14.2175 11.9955L18.974 7.23589C22.246 3.96175 23.7757 2.3675 23.8753 2.12759C24.181 1.39072 23.9103 0.595988 23.2205 0.205466C22.7817 -0.0429709 22.3654 -0.0646349 21.8824 0.135597C21.6424 0.235103 20.0474 1.76408 16.7718 5.03466L12.0101 9.78901L7.24832 5.03466C3.97272 1.76408 2.37775 0.235103 2.13774 0.135597C1.69122 -0.0495354 1.25483 -0.0450338 0.861502 0.148726Z" fill="white"/>
</svg>
