<svg width="85" height="18" viewBox="0 0 85 18" fill="none" xmlns="http://www.w3.org/2000/svg">
<path d="M14.9379 12.316L15.8208 13.3259H10.9586L11.8414 12.316V7.53722C11.8414 7.06644 11.7629 6.73301 11.6057 6.53692C11.4485 6.34083 11.1986 6.24278 10.856 6.24278C10.401 6.24278 9.93466 6.41664 9.45689 6.76437V12.316L10.3397 13.3259H5.4787L6.36156 12.316V7.53722C6.36156 7.06644 6.28298 6.73301 6.12582 6.53692C5.96865 6.34083 5.71916 6.24278 5.37733 6.24278C4.92077 6.24278 4.45439 6.41664 3.97819 6.76437V12.316L4.86105 13.3259H0L0.882865 12.316V7.16806L0.067188 6.20825L3.98055 4.47559L3.73066 6.09036L3.81435 6.17491C4.82805 5.10871 5.93251 4.57601 7.12773 4.57681C8.32295 4.5776 9.06123 5.09363 9.34255 6.12489C10.3421 5.09284 11.4301 4.57681 12.6064 4.57681C14.1616 4.57681 14.9387 5.42905 14.9379 7.13353V12.316Z" fill="#1B1F23"/>
<path d="M22.2497 11.2546C23.2437 11.2752 24.2143 10.9484 24.9973 10.3293L25.081 10.4127C24.49 12.4657 23.173 13.4922 21.1299 13.4922C19.7531 13.4922 18.653 13.0603 17.8295 12.1965C17.0059 11.3328 16.5973 10.2503 16.6036 8.94912C16.6036 7.60348 17.0393 6.53809 17.9108 5.75293C18.7823 4.96777 19.9123 4.5752 21.3008 4.5752C22.4992 4.5752 23.437 4.88362 24.1144 5.50047C24.7918 6.11732 25.136 7.01442 25.147 8.19176H19.5021C19.5453 9.20158 19.8034 9.96451 20.2765 10.4805C20.7495 10.9966 21.4073 11.2546 22.2497 11.2546ZM21.0002 5.33733C20.7953 5.33579 20.5934 5.38756 20.414 5.48767C20.2346 5.58778 20.0837 5.73285 19.9759 5.90893C19.715 6.29 19.5626 6.82269 19.5186 7.50703H22.1495C22.1495 6.06056 21.7664 5.33733 21.0002 5.33733Z" fill="#1B1F23"/>
<path d="M35.3922 11.2558L36.4531 12.2144L33.2234 13.6279L32.5409 12.1989H32.4584C32.1281 12.6024 31.714 12.9276 31.2455 13.1515C30.777 13.3753 30.2656 13.4925 29.7473 13.4945C29.2705 13.4974 28.7978 13.4053 28.3563 13.2234C27.9147 13.0416 27.513 12.7735 27.1742 12.4347C26.4355 11.7281 26.0662 10.7187 26.0662 9.40639C26.0603 8.80114 26.1621 8.19975 26.3667 7.63086C26.543 7.12611 26.8144 6.66065 27.1659 6.26021C27.5029 5.88609 27.8963 5.56818 28.3317 5.31826C28.7657 5.0638 29.2338 4.8737 29.7214 4.75381C30.2042 4.63617 30.6993 4.577 31.196 4.57756C31.5635 4.58299 31.9304 4.61123 32.2945 4.66211V2.69128L31.4788 1.73266L35.3922 0V11.2558ZM31.0628 11.9786C31.518 11.9879 31.9592 11.8194 32.2945 11.5082V6.57816C32.2987 6.4155 32.2694 6.25373 32.2086 6.10307C32.1477 5.95242 32.0566 5.81616 31.9409 5.7029C31.8263 5.58713 31.6898 5.49584 31.5395 5.43447C31.3893 5.3731 31.2283 5.34289 31.0663 5.34565C30.5335 5.34565 30.095 5.64852 29.7508 6.25426C29.4067 6.85999 29.2322 7.68604 29.2275 8.73238C29.2275 9.79778 29.3968 10.6052 29.7355 11.1545C30.0742 11.7039 30.5154 11.9786 31.0592 11.9786H31.0628Z" fill="#1B1F23"/>
<path d="M41.0006 12.315L41.8835 13.3248H37.0212L37.9029 12.315V7.16698L37.0872 6.20717L41.0006 4.4745V12.315ZM40.5598 3.28843C40.2853 3.55438 39.9283 3.71637 39.5491 3.747C39.17 3.77763 38.7921 3.67503 38.4792 3.45654C38.1664 3.23805 37.9378 2.9171 37.8322 2.54797C37.7267 2.17884 37.7505 1.78419 37.8998 1.43079C38.0491 1.07739 38.3146 0.78693 38.6514 0.608541C38.9883 0.430153 39.3758 0.374788 39.7484 0.451814C40.121 0.52884 40.4558 0.733527 40.6962 1.03125C40.9367 1.32898 41.0679 1.70146 41.0678 2.08569C41.0687 2.31057 41.0242 2.53327 40.9368 2.7401C40.8494 2.94694 40.7211 3.13354 40.5598 3.28843Z" fill="#1B1F23"/>
<path d="M51.9759 11.5737L52.0596 11.6583C51.8694 12.2751 51.5637 12.7352 51.1425 13.0384C50.7142 13.343 50.201 13.5019 49.6774 13.4922C48.7556 13.4922 48.1006 13.0952 47.7124 12.3013H47.6287C47.3348 12.6847 46.9553 12.9924 46.5212 13.1993C46.0871 13.4063 45.6108 13.5066 45.131 13.4922C44.4096 13.4922 43.8325 13.2988 43.3995 12.9122C42.9665 12.5256 42.75 12.0068 42.75 11.3558C42.75 10.4127 43.1822 9.68903 44.0466 9.18491H47.5439V8.2763C47.5439 7.63643 47.402 7.18788 47.1183 6.93066C46.8347 6.67344 46.4103 6.54444 45.8453 6.54364C45.0226 6.54364 44.1676 6.82389 43.2804 7.38437L43.1967 7.30101C44.1295 5.4838 45.5562 4.5752 47.4767 4.5752C48.4542 4.5752 49.2177 4.82209 49.7669 5.31589C50.3162 5.80969 50.5913 6.49918 50.5921 7.38437V11.0355C50.5921 11.596 50.803 11.8766 51.225 11.8774C51.5029 11.8688 51.7689 11.7612 51.9759 11.5737ZM46.43 12.0786C46.6399 12.0735 46.8467 12.0263 47.0384 11.9396C47.23 11.8529 47.4026 11.7285 47.5462 11.5737V9.8744H45.883C45.5928 10.1764 45.4312 10.5812 45.4328 11.0021C45.4328 11.3498 45.5247 11.6162 45.7086 11.8012C45.804 11.8944 45.9171 11.967 46.0411 12.0147C46.1651 12.0624 46.2974 12.0842 46.43 12.0786Z" fill="#1B1F23"/>
<path d="M61.884 4.57637C62.3609 4.57348 62.8335 4.6656 63.2751 4.84746C63.7166 5.02932 64.1183 5.29735 64.4572 5.63622C65.1951 6.34278 65.5644 7.35221 65.5652 8.6645C65.5711 9.26976 65.4692 9.87115 65.2646 10.44C65.0884 10.9448 64.817 11.4102 64.4655 11.8107C64.1285 12.1848 63.735 12.5027 63.2997 12.7526C62.8667 13.0067 62.3999 13.1968 61.9135 13.3171C61.4311 13.4348 60.9364 13.4939 60.4401 13.4933C59.285 13.4933 58.3078 13.3084 57.5086 12.9384L56.2439 13.4933V2.69128L55.427 1.73266L59.3415 0V4.5597L59.0846 5.78745L59.1671 5.872C59.4974 5.46853 59.9114 5.14333 60.3799 4.91944C60.8484 4.69555 61.3599 4.57843 61.8782 4.57637H61.884ZM60.5686 12.7217C61.1014 12.7217 61.5399 12.4188 61.884 11.8131C62.2282 11.2073 62.4003 10.3829 62.4003 9.33971C62.4003 8.2751 62.231 7.46772 61.8923 6.91755C61.5536 6.36739 61.1124 6.0923 60.5686 6.0923C60.1126 6.08463 59.6712 6.2553 59.3368 6.56864V11.4987C59.3325 11.6612 59.3618 11.8228 59.4226 11.9733C59.4835 12.1238 59.5747 12.2598 59.6904 12.3728C59.806 12.4876 59.9434 12.5777 60.0943 12.6377C60.2452 12.6977 60.4065 12.7262 60.5686 12.7217Z" fill="#1B1F23"/>
<path d="M75.8731 11.5737L75.9568 11.6583C75.7682 12.2751 75.4629 12.7352 75.0409 13.0384C74.612 13.3427 74.0986 13.5016 73.5746 13.4922C72.6528 13.4922 71.9978 13.0952 71.6096 12.3013H71.5271C71.2329 12.6846 70.8532 12.9923 70.4189 13.1992C69.9847 13.4061 69.5082 13.5065 69.0282 13.4922C68.3069 13.4922 67.7297 13.2988 67.2967 12.9122C66.8637 12.5256 66.6472 12.0068 66.6472 11.3558C66.6472 10.4127 67.0794 9.68903 67.9438 9.18491H71.4411V8.2763C71.4411 7.63643 71.2996 7.18788 71.0167 6.93066C70.7339 6.67344 70.3091 6.54444 69.7425 6.54364C68.9206 6.54364 68.0656 6.82389 67.1776 7.38437L67.094 7.30101C68.0275 5.4838 69.4542 4.5752 71.3739 4.5752C72.3515 4.5752 73.1149 4.82209 73.6642 5.31589C74.2134 5.80969 74.4885 6.49918 74.4893 7.38437V11.0355C74.4893 11.596 74.6999 11.8766 75.1211 11.8774C75.3994 11.8691 75.6658 11.7615 75.8731 11.5737ZM70.3331 12.0786C70.543 12.0735 70.7498 12.0263 70.9415 11.9396C71.1331 11.8529 71.3058 11.7285 71.4493 11.5737V9.8744H69.7779C69.488 10.1765 69.3268 10.5813 69.3288 11.0021C69.3288 11.3498 69.4196 11.6166 69.6035 11.8012C69.6991 11.8947 69.8126 11.9675 69.937 12.0152C70.0615 12.0629 70.1942 12.0845 70.3272 12.0786H70.3331Z" fill="#1B1F23"/>
<path d="M83.9168 5.75418L80.37 13.8304L79.7535 15.2427L81.6395 17.3636H77.6425L79.7571 12.9051L75.7495 5.6863L74.7334 4.74435H80.2463L79.3634 5.75418L81.3283 9.35407L82.8441 5.75418L81.8694 4.74316H85L83.9168 5.75418Z" fill="#1B1F23"/>
</svg>
