<svg width="20" height="19" viewBox="0 0 20 19" fill="none" xmlns="http://www.w3.org/2000/svg">
<path fill-rule="evenodd" clip-rule="evenodd" d="M18.0263 0.0483744C17.7856 0.104279 17.5393 0.237628 17.3403 0.419678C17.2215 0.528389 13.294 5.90069 8.41668 12.6261C7.60932 13.7394 6.93065 14.6511 6.90855 14.6522C6.88641 14.6534 6.84756 14.6226 6.82215 14.5838C6.70472 14.4045 2.59661 10.0269 2.45691 9.93221C1.96835 9.60082 1.24615 9.60176 0.755736 9.93437C0.215691 10.3007 -0.0867968 11.0143 0.0220074 11.6653C0.0456282 11.8065 0.118613 12.0383 0.184219 12.1805C0.294136 12.4187 0.430705 12.576 1.92566 14.186C2.81789 15.1468 4.12166 16.5518 4.82297 17.3082C5.98538 18.5619 6.11925 18.6947 6.33808 18.8118C6.90467 19.1148 7.56053 19.0483 8.0475 18.6385C8.19374 18.5154 9.53039 16.7013 13.9596 10.6144C17.1074 6.28863 19.7308 2.66457 19.7896 2.5609C19.9986 2.19187 20.0559 1.71585 19.9434 1.28209C19.7819 0.659324 19.3101 0.177041 18.7349 0.0467535C18.4576 -0.0160309 18.3023 -0.0156707 18.0263 0.0483744Z" fill="white"/>
</svg>
