<svg width="25" height="25" viewBox="0 0 25 25" fill="none" xmlns="http://www.w3.org/2000/svg">
<path fill-rule="evenodd" clip-rule="evenodd" d="M13.5308 0.0783021C13.0347 0.326967 13.0088 1.01843 13.4847 1.30721C13.5682 1.35788 13.8383 1.43777 14.085 1.48483C15.9374 1.83801 17.8033 2.72429 19.3321 3.9771C21.4781 5.73583 22.9289 8.11918 23.5133 10.8463C23.6458 11.4648 23.6787 11.5417 23.8704 11.6841C24.1771 11.9117 24.5587 11.8901 24.8076 11.631C25.0331 11.396 25.0492 11.238 24.914 10.5865C24.379 8.00953 23.1491 5.72596 21.2775 3.83427C19.3936 1.93027 17.1143 0.680443 14.4977 0.116513C13.816 -0.0304184 13.7525 -0.0329105 13.5308 0.0783021ZM4.07333 1.55182C3.44879 1.75118 2.81617 2.28399 1.35787 3.83881C0.644311 4.59956 0.39288 4.98343 0.186789 5.62672C-0.0191544 6.26937 -0.0603329 7.41061 0.0909176 8.2818C0.417019 10.16 1.54153 12.6955 3.01354 14.8715C5.42258 18.4327 8.54239 21.2564 12.2322 23.2154C14.339 24.3339 16.1191 24.9083 17.7407 24.9929C18.8921 25.0529 19.9041 24.7334 20.6786 24.0654C20.7728 23.9842 21.3357 23.4193 21.9295 22.8103C22.9094 21.805 23.0279 21.665 23.2152 21.2923C23.5844 20.5571 23.5852 19.8995 23.2178 19.1471C23.0201 18.742 22.9699 18.6867 21.198 16.918C19.4945 15.2176 19.3581 15.0933 19.0138 14.927C18.2739 14.5699 17.4917 14.605 16.763 15.0279C16.641 15.0988 16.0854 15.6062 15.5285 16.1556L14.5158 17.1545L14.0282 16.8968C11.8758 15.7593 9.04613 12.9163 7.99448 10.8346L7.80641 10.4624L8.75098 9.5153C9.745 8.51859 9.98904 8.20982 10.1549 7.73878C10.3731 7.11944 10.3287 6.52033 10.0182 5.89229C9.85786 5.56808 9.69222 5.38792 8.02645 3.72609C6.13046 1.83449 5.97779 1.70711 5.40148 1.53633C5.05075 1.4324 4.42464 1.43968 4.07333 1.55182ZM5.17081 2.97354C5.47747 3.11735 8.6413 6.28989 8.77663 6.58922C9.02939 7.14837 8.92225 7.33395 7.5775 8.66591C6.98058 9.25715 6.45392 9.81561 6.40716 9.90689C6.34257 10.0329 6.32691 10.1566 6.34204 10.42C6.35908 10.7158 6.39785 10.8392 6.60473 11.2557C7.30271 12.6606 8.19876 13.8352 9.75607 15.3867C11.041 16.6669 12.3267 17.6315 13.6695 18.3226C14.2244 18.6083 14.2992 18.6338 14.5753 18.6315C14.7669 18.6299 14.9386 18.5967 15.0477 18.5401C15.1419 18.4911 15.7148 17.9617 16.3208 17.3636C16.9267 16.7654 17.493 16.2404 17.5791 16.1968C17.7771 16.0966 18.1306 16.0951 18.3666 16.1933C18.6192 16.2984 21.8022 19.481 21.951 19.7772C22.0903 20.0546 22.0896 20.3906 21.9492 20.6704C21.8822 20.804 21.4171 21.3063 20.6855 22.0355C19.4179 23.2989 19.3056 23.3799 18.6209 23.5255C17.4743 23.7692 15.5334 23.2787 13.3829 22.2019C9.88661 20.4513 7.0126 17.9827 4.63671 14.6895C3.40144 12.9774 2.5096 11.3015 1.93075 9.60472C1.54653 8.47847 1.4601 8.01896 1.4601 7.10229C1.4601 6.25886 1.50672 6.02686 1.76941 5.5631C1.94436 5.25423 4.04693 3.14168 4.32451 2.99592C4.59842 2.85202 4.89509 2.8442 5.17081 2.97354ZM13.2968 4.63445C12.9619 4.83816 12.8435 5.27876 13.038 5.59711C13.1755 5.82207 13.2953 5.88271 13.8871 6.02686C15.2452 6.35756 16.3343 6.97871 17.2621 7.95168C18.1355 8.86747 18.7288 9.9686 18.9899 11.1579C19.0911 11.6187 19.1622 11.7733 19.336 11.9097C19.7326 12.221 20.3691 11.9915 20.4607 11.5042C20.53 11.1355 20.1612 9.85524 19.7425 9.01137C18.6559 6.82108 16.665 5.23102 14.2887 4.65566C13.6948 4.51185 13.5049 4.5078 13.2968 4.63445Z" fill="#E7AF2A"/>
</svg>
