<svg width="25" height="25" viewBox="0 0 25 25" fill="none" xmlns="http://www.w3.org/2000/svg">
<path fill-rule="evenodd" clip-rule="evenodd" d="M23.4309 0.0946813C22.5929 0.411355 0.547785 10.1716 0.433278 10.2766C-0.207424 10.8645 -0.12306 12.0305 0.590407 12.4481C0.691163 12.507 1.95701 13.0592 3.40337 13.6752C4.84973 14.291 6.03923 14.802 6.04672 14.8104C6.05416 14.819 6.52496 16.5326 7.09294 18.6185C7.66088 20.7044 8.1653 22.5003 8.21389 22.6094C8.49717 23.2457 9.16489 23.5063 9.70738 23.1925C9.84048 23.1154 10.6539 22.3962 11.515 21.5942C12.376 20.7922 13.1335 20.113 13.1982 20.0849C13.2842 20.0476 13.3633 20.0609 13.4922 20.1345C13.5891 20.1899 14.8686 21.2298 16.3354 22.4455C17.8022 23.6611 19.0935 24.7239 19.205 24.8074C19.4442 24.9863 19.8358 25.05 20.1332 24.9583C20.3936 24.878 20.7559 24.5119 20.8551 24.229C20.898 24.1067 21.8596 18.9227 22.9921 12.7089C25.2706 0.206829 25.1396 1.0733 24.8295 0.559806C24.5168 0.0418465 24.0135 -0.125482 23.4309 0.0946813ZM24.0071 1.29988C24.0247 1.51737 19.9811 23.7062 19.9048 23.8111C19.8728 23.8551 19.8305 23.891 19.8108 23.891C19.791 23.891 18.4704 22.8103 16.8759 21.4894C13.7321 18.885 13.7151 18.8732 13.1795 18.9364C13.0411 18.9527 12.8302 19.0194 12.7109 19.0847C12.5916 19.15 11.7673 19.881 10.8792 20.7091C9.991 21.5373 9.25331 22.2147 9.23985 22.2143C9.13464 22.212 8.97071 21.6704 8.02255 18.1917C7.4327 16.0275 6.92417 14.1926 6.89256 14.1142C6.86094 14.0357 6.79469 13.9427 6.74526 13.9075C6.69589 13.8723 5.40372 13.3117 3.87383 12.6617C2.34398 12.0117 1.06449 11.4398 1.03057 11.3908C0.980318 11.3182 0.982863 11.2859 1.04432 11.2158C1.13383 11.1136 23.8136 1.10642 23.9203 1.12205C23.9634 1.12837 23.9992 1.2017 24.0071 1.29988ZM18.8781 5.00139C18.3813 5.29354 8.45235 12.3183 8.29365 12.49C8.02241 12.7833 7.85975 13.1798 7.8323 13.6146C7.81111 13.9498 7.85564 14.1639 8.41237 16.4044C9.05718 18.9991 9.0907 19.0924 9.43618 19.2557C9.63241 19.3485 9.97867 19.2989 10.1591 19.1523C10.3948 18.9607 10.4576 18.7185 10.6138 17.4001C10.8051 15.786 10.8402 15.6496 11.1616 15.269C11.3023 15.1024 13.2959 12.976 15.5918 10.5438C17.8877 8.11165 19.787 6.0592 19.8124 5.98285C20.0424 5.29248 19.4469 4.66695 18.8781 5.00139ZM16.4079 8.13466C16.3276 8.22324 14.9738 9.65743 13.3993 11.3218C11.8248 12.9861 10.4395 14.4782 10.3209 14.6374C9.98772 15.0846 9.84082 15.5116 9.74153 16.3218C9.69436 16.7065 9.64361 17.0213 9.62879 17.0213C9.61391 17.0214 9.41964 16.2916 9.19708 15.3996C8.7644 13.6655 8.75398 13.5677 8.97595 13.3297C9.08008 13.218 16.4632 7.98649 16.5302 7.97694C16.5431 7.9751 16.4881 8.04609 16.4079 8.13466ZM20.5106 12.4071C20.3508 12.5607 20.2502 12.8872 20.2502 13.2526C20.2502 13.7062 20.7782 13.9664 21.0558 13.6496C21.2913 13.3807 21.3542 12.7169 21.1676 12.4692C21.0005 12.2475 20.7059 12.2196 20.5106 12.4071ZM19.9863 15.0806C19.834 15.2576 19.8159 15.3368 19.2572 18.278C18.942 19.9368 18.6842 21.3902 18.6842 21.5077C18.6842 21.98 19.1945 22.2323 19.4832 21.9027C19.5533 21.8228 19.621 21.716 19.6337 21.6653C19.6464 21.6147 19.9147 20.2143 20.2297 18.5534C20.8604 15.2292 20.8626 15.2065 20.5778 15.0083C20.3451 14.8464 20.1694 14.8679 19.9863 15.0806Z" fill="white"/>
</svg>
