<svg width="30" height="30" viewBox="0 0 30 30" fill="none" xmlns="http://www.w3.org/2000/svg">
<path fill-rule="evenodd" clip-rule="evenodd" d="M2.21011 0.0537674C1.17019 0.228611 0.232222 1.18785 0.0574366 2.25531C-0.0191455 2.72271 -0.0191455 27.263 0.0574366 27.7304C0.236792 28.8258 1.16732 29.7563 2.26273 29.9357C2.73013 30.0122 27.2704 30.0122 27.7378 29.9357C28.8332 29.7563 29.7637 28.8258 29.9431 27.7304C30.0197 27.263 30.0197 2.72271 29.9431 2.25531C29.7637 1.1599 28.8332 0.229373 27.7378 0.0500174C27.316 -0.0190646 2.62174 -0.0154318 2.21011 0.0537674ZM27.8616 1.49623C28.1358 1.64424 28.3612 1.87375 28.5141 2.1608C28.6197 2.35908 28.6233 2.785 28.6233 14.9928C28.6233 27.2007 28.6197 27.6266 28.5141 27.8249C28.3612 28.1119 28.1358 28.3414 27.8616 28.4895L27.6272 28.6159H15.0003C2.79242 28.6159 2.3665 28.6123 2.16822 28.5067C1.88117 28.3538 1.65166 28.1284 1.50365 27.8542L1.3772 27.6198V14.9928C1.3772 2.785 1.38084 2.35908 1.48642 2.1608C1.70023 1.75943 2.02777 1.49412 2.43189 1.39492C2.52857 1.37119 8.23707 1.35584 15.1174 1.36082L27.6272 1.36978L27.8616 1.49623ZM8.4026 8.39518C8.23127 8.56651 8.20338 8.63389 8.20338 8.87606V9.15778L11.1171 12.0753L14.0308 14.9928L11.1171 17.9104L8.20338 20.8279V21.1096C8.20338 21.3518 8.23127 21.4192 8.4026 21.5905C8.57393 21.7618 8.64131 21.7897 8.88348 21.7897H9.1652L12.0827 18.876L15.0003 15.9623L17.9178 18.876L20.8353 21.7897H21.117C21.3592 21.7897 21.4266 21.7618 21.5979 21.5905C21.7692 21.4192 21.7971 21.3518 21.7971 21.1096V20.8279L18.8834 17.9104L15.9698 14.9928L18.8834 12.0753L21.7971 9.15778V8.87606C21.7971 8.63389 21.7692 8.56651 21.5979 8.39518C21.4266 8.22385 21.3592 8.19596 21.117 8.19596H20.8353L17.9178 11.1097L15.0003 14.0233L12.0827 11.1097L9.1652 8.19596H8.88348C8.64131 8.19596 8.57393 8.22385 8.4026 8.39518Z" fill="white"/>
</svg>
