<svg width="15" height="18" viewBox="0 0 15 18" fill="none" xmlns="http://www.w3.org/2000/svg">
<path fill-rule="evenodd" clip-rule="evenodd" d="M6.9882 0.396079C6.52242 0.860598 5.67534 1.48425 4.95438 1.89339C3.7098 2.59967 2.56639 2.90831 0.901287 2.98731C-0.141693 3.03681 -0.075266 2.98606 0.10668 3.59377C0.229278 4.00329 0.277047 4.20686 0.433521 4.98571C0.517745 5.40491 0.537924 6.02519 0.540306 8.26709C0.541894 9.78759 0.571733 11.1582 0.606601 11.3128C0.641534 11.4675 0.6985 11.7435 0.733235 11.9261C0.917099 12.8922 1.4245 13.8427 2.08374 14.456C2.65882 14.991 3.27697 15.4255 4.67253 16.2758C5.37676 16.7049 6.98582 17.708 7.38848 17.9691C7.45213 18.0103 7.51657 18.0103 7.57995 17.9691C7.88304 17.7719 9.48767 16.7627 9.76701 16.5937C12.5405 14.9152 13.2008 14.3623 13.7506 13.2579C14.0273 12.7022 14.1254 12.38 14.3047 11.4379C14.4229 10.8166 14.4412 10.4717 14.4392 8.89637C14.4379 7.89389 14.419 7.00642 14.3972 6.9241C14.3392 6.70597 14.4778 5.10878 14.602 4.56256C14.7325 3.98892 14.8817 3.45671 14.9684 3.25614C15.0104 3.15888 15.0106 3.08457 14.9689 3.04519C14.9335 3.01175 14.612 2.98887 14.2545 2.99425C13.3716 3.00763 12.059 2.79024 11.4111 2.52336C11.2964 2.4761 11.1848 2.43748 11.1632 2.43748C11.1415 2.43748 10.9227 2.34841 10.6769 2.23947C9.925 1.90633 8.80753 1.16155 8.16059 0.562461C7.82641 0.253073 7.51525 -6.2491e-05 7.46907 1.15721e-08C7.42295 6.25142e-05 7.20653 0.17832 6.9882 0.396079Z" fill="#E5D2A5"/>
</svg>
