<svg width="20" height="24" viewBox="0 0 20 24" fill="none" xmlns="http://www.w3.org/2000/svg">
<path fill-rule="evenodd" clip-rule="evenodd" d="M9.3176 0.528105C8.69656 1.14746 7.56713 1.979 6.60583 2.52452C4.9464 3.46623 3.42185 3.87774 1.20172 3.98308C-0.188923 4.04909 -0.100355 3.98142 0.14224 4.7917C0.305704 5.33772 0.369396 5.60915 0.578028 6.64761C0.690327 7.20655 0.717233 8.03359 0.720408 11.0228C0.722526 13.0501 0.762311 14.8775 0.808801 15.0838C0.855379 15.2901 0.931333 15.658 0.977647 15.9015C1.2228 17.1896 1.89933 18.4569 2.77831 19.2746C3.54509 19.988 4.36929 20.5674 6.23003 21.7011C7.16901 22.2732 9.31442 23.6107 9.85131 23.9587C9.93617 24.0138 10.0221 24.0138 10.1066 23.9587C10.5107 23.6958 12.6502 22.3503 13.0227 22.1249C16.7206 19.8869 17.601 19.1497 18.3341 17.6772C18.7031 16.9362 18.8338 16.5067 19.0729 15.2505C19.2305 14.4221 19.2549 13.9623 19.2522 11.8618C19.2506 10.5252 19.2253 9.34189 19.1962 9.23213C19.1189 8.94129 19.3037 6.8117 19.4693 6.08342C19.6433 5.31855 19.8423 4.60894 19.9579 4.34151C20.0138 4.21184 20.0141 4.11275 19.9585 4.06025C19.9113 4.01567 19.4827 3.98517 19.0059 3.99233C17.8288 4.01017 16.0787 3.72032 15.2148 3.36447C15.0619 3.30147 14.9131 3.24997 14.8842 3.24997C14.8553 3.24997 14.5635 3.13121 14.2359 2.98596C13.2333 2.54177 11.7434 1.54873 10.8808 0.749948C10.4352 0.337431 10.0203 -8.33214e-05 9.95875 1.54294e-08C9.89727 8.33522e-05 9.60871 0.23776 9.3176 0.528105Z" fill="white"/>
</svg>
