<svg width="25" height="25" viewBox="0 0 25 25" fill="none" xmlns="http://www.w3.org/2000/svg">
<path fill-rule="evenodd" clip-rule="evenodd" d="M11.6444 0.025064C9.82071 0.198669 8.4787 0.563915 7.01914 1.28395C6.25258 1.66214 5.52652 2.1051 5.28468 2.3422C5.04348 2.57866 5.0295 2.81399 5.24398 3.02709C5.43401 3.2158 5.69888 3.22249 5.93939 3.04458C6.59815 2.5572 7.80878 1.94059 8.74131 1.61742C10.0809 1.15325 11.0607 0.995387 12.5793 0.999199C13.8067 1.00223 14.4556 1.08297 15.5316 1.3664C18.6465 2.18697 21.3658 4.40049 22.8285 7.30622C23.6478 8.93382 24.0143 10.5005 24.0161 12.383C24.0171 13.5259 23.9482 14.116 23.6941 15.1402C22.966 18.0741 21.0778 20.6028 18.4346 22.184C15.7995 23.7603 12.5699 24.2037 9.54654 23.4043C8.813 23.2103 8.3083 23.0217 7.50036 22.6395L6.82528 22.3201L4.59729 22.9173C1.28286 23.8057 1.26165 23.8111 1.23183 23.7815C1.21663 23.7664 1.53828 22.57 1.94663 21.1229C2.35503 19.6757 2.68913 18.448 2.68913 18.3945C2.68913 18.3411 2.53669 18.0004 2.3504 17.6373C1.51412 16.0077 1.13431 14.546 1.07964 12.7472C1.00574 10.3147 1.59964 8.19561 2.93422 6.12994C3.12415 5.83591 3.27959 5.54549 3.27959 5.48464C3.27959 5.30737 3.17276 5.12316 3.02643 5.04799C2.6939 4.87717 2.49649 5.00527 2.06005 5.67506C0.797062 7.61336 0.157647 9.68616 0.0963382 12.0408C0.0398512 14.2092 0.457943 16.095 1.41512 17.9896L1.6668 18.4878L0.817728 21.5011C0.209952 23.6581 -0.0219499 24.5516 0.00161918 24.6449C0.04364 24.8113 0.189975 24.9568 0.357074 24.9985C0.449431 25.0215 1.40307 24.7853 3.60749 24.1934L6.72721 23.3557L7.01156 23.4983C7.83943 23.9134 8.96843 24.3021 9.93595 24.505C14.1622 25.3913 18.5221 24.0775 21.4905 21.0231C23.405 19.053 24.5511 16.6917 24.9365 13.9225C25.0201 13.3216 25.0215 11.4464 24.9387 10.8678C24.5995 8.49834 23.719 6.43214 22.283 4.63621C21.8281 4.0673 20.8615 3.109 20.3114 2.68154C18.0169 0.898418 15.2861 -0.0334887 12.4563 0.00091955C12.1044 0.00517171 11.7391 0.0160709 11.6444 0.025064ZM3.91925 3.4959C3.64257 3.60318 3.51173 3.93343 3.64478 4.18895C3.74147 4.37468 3.85873 4.44071 4.092 4.44071C4.33911 4.44071 4.55891 4.22424 4.55891 3.98094C4.55891 3.67591 4.1854 3.39272 3.91925 3.4959ZM7.92879 6.57837C7.28258 6.80828 6.78207 7.26747 6.44979 7.9353C5.94771 8.94428 5.86111 10.0052 6.19245 11.0878C6.52493 12.174 7.6003 13.8023 8.8652 15.1349C10.2808 16.6262 12.4688 17.9186 14.4839 18.4539C14.9095 18.5669 15.0634 18.5824 15.8022 18.586C16.5496 18.5897 16.6778 18.5779 17.0065 18.4754C17.7654 18.2387 18.2653 17.9011 18.6385 17.3732C18.9265 16.9659 19.0506 16.5929 19.0979 15.9922C19.1255 15.6428 19.1157 15.4848 19.0532 15.2715C18.9162 14.8033 18.7976 14.7135 17.4599 14.0647C16.7973 13.7434 16.1591 13.4564 16.0417 13.427C15.4947 13.2902 15.1144 13.506 14.5105 14.2955C14.2465 14.6408 14.0521 14.8512 13.9972 14.8512C13.8432 14.8512 13.4422 14.678 13.0235 14.4306C11.9966 13.824 10.9674 12.8919 10.3867 12.0427L10.1038 11.6292L10.3452 11.3539C11.0336 10.5688 11.1679 10.2747 11.062 9.78445C10.9909 9.45518 9.90893 7.00207 9.76998 6.85515C9.54777 6.62021 9.25579 6.52578 8.69486 6.5075C8.2871 6.49421 8.12241 6.50946 7.92879 6.57837ZM8.98379 7.51795C9.06576 7.56155 10.0204 9.66798 10.0949 9.96983C10.1222 10.0801 10.0703 10.1627 9.72668 10.5563C9.23857 11.1154 9.13494 11.3014 9.13494 11.6185C9.13494 12.4275 10.8332 14.2648 12.4896 15.2478C13.2176 15.6797 13.5629 15.8041 14.0346 15.8042C14.3948 15.8042 14.4491 15.7913 14.614 15.6665C14.714 15.5907 14.9699 15.3048 15.1828 15.0311C15.7693 14.2769 15.7 14.3113 16.1836 14.534C16.9647 14.8937 18.0659 15.4501 18.1048 15.5047C18.1687 15.5947 18.0898 16.3253 17.9923 16.546C17.8787 16.8032 17.5425 17.1682 17.2769 17.3228C16.7766 17.614 15.8137 17.7165 15.0069 17.5643C13.7452 17.3264 11.7962 16.3644 10.5619 15.3703C8.99555 14.1087 7.39349 11.8894 7.06461 10.5254C6.78512 9.36608 7.26039 7.96404 8.06415 7.5769C8.29128 7.46746 8.82451 7.4333 8.98379 7.51795Z" fill="black"/>
</svg>
